<svg width="18" height="18" viewBox="0 0 18 18" fill="none" xmlns="http://www.w3.org/2000/svg">
<path opacity="0.4" d="M9.01797 0.666504C4.1763 0.666504 0.667969 4.6165 0.667969 8.99984C0.667969 10.3998 1.0763 11.8415 1.79297 13.1582C1.9263 13.3748 1.94297 13.6498 1.8513 13.9082L1.29297 15.7748C1.16797 16.2248 1.5513 16.5582 1.9763 16.4248L3.65964 15.9248C4.11797 15.7748 4.4763 15.9665 4.90214 16.2248C6.1188 16.9415 7.63464 17.3082 9.0013 17.3082C13.1346 17.3082 17.3346 14.1165 17.3346 8.97484C17.3346 4.5415 13.7513 0.666504 9.01797 0.666504Z" fill="white"/>
<path d="M5.14284 7.94151C5.7345 7.94151 6.20951 8.41651 6.20951 9.00818C6.20951 9.59151 5.7345 10.0665 5.14284 10.0748C4.55951 10.0748 4.07617 9.59151 4.07617 9.00818C4.07617 8.41651 4.55117 7.94151 5.14284 7.94151ZM8.98484 7.94151C9.5765 7.94151 10.0515 8.41651 10.0515 9.00818C10.0515 9.59151 9.5765 10.0748 8.98484 10.0748C8.39317 10.0665 7.91817 9.59151 7.91817 8.99985C7.91817 8.41651 8.4015 7.93318 8.98484 7.94151ZM12.8263 7.94151C13.418 7.94151 13.893 8.41651 13.893 9.00818C13.893 9.59151 13.418 10.0748 12.8263 10.0748C12.2347 10.0748 11.7597 9.59151 11.7597 9.00818C11.7597 8.41651 12.2347 7.94151 12.8263 7.94151Z" fill="white"/>
</svg>
