<svg width="18" height="18" viewBox="0 0 18 18" fill="none" xmlns="http://www.w3.org/2000/svg">
<path opacity="0.4" d="M12.8863 17.3246H5.11175C3.90631 17.3995 2.72252 16.9816 1.83177 16.1674C1.0176 15.2759 0.599692 14.0921 0.674615 12.8875V5.11219C0.599692 3.9076 1.01677 2.72382 1.83093 1.83224C2.72252 1.01808 3.90631 0.600181 5.11175 0.675103H12.8863C14.0901 0.600181 15.273 1.01725 16.1638 1.83141C16.9771 2.72382 17.3959 3.90677 17.3243 5.11219V12.8875C17.3984 14.0921 16.9813 15.2759 16.1671 16.1674C15.2755 16.9816 14.0917 17.3995 12.8863 17.3246Z" fill="white"/>
<path d="M13.2115 7.66447L7.75082 13.1523C7.46684 13.4287 7.0936 13.5832 6.70413 13.5832H4.79737C4.69189 13.5832 4.59452 13.5425 4.5215 13.4693C4.44847 13.3962 4.41602 13.2986 4.41602 13.1929L4.4647 11.2661C4.47281 10.884 4.62698 10.5263 4.89474 10.258L8.76506 6.37992C8.82997 6.31488 8.94357 6.31488 9.00848 6.37992L10.3659 7.73195C10.4552 7.82057 10.585 7.87829 10.7229 7.87829C11.0232 7.87829 11.2585 7.63439 11.2585 7.34171C11.2585 7.19537 11.2017 7.06528 11.1124 6.96772C11.0881 6.9352 9.79553 5.64821 9.79553 5.64821C9.71439 5.56691 9.71439 5.4287 9.79553 5.3474L10.3392 4.79455C10.8422 4.29049 11.6536 4.29049 12.1567 4.79455L13.2115 5.85146C13.7064 6.3474 13.7064 7.16041 13.2115 7.66447Z" fill="white"/>
</svg>
