<svg width="16" height="18" viewBox="0 0 16 18" fill="none" xmlns="http://www.w3.org/2000/svg">
<path d="M5.62043 16.3183V13.7625C5.62042 13.1149 6.14704 12.5888 6.79935 12.5847H9.19449C9.84971 12.5847 10.3809 13.112 10.3809 13.7625V16.3109C10.3809 16.8726 10.8373 17.3291 11.4031 17.3332H13.0372C13.8003 17.3351 14.5329 17.0355 15.0733 16.5004C15.6136 15.9654 15.9173 15.2388 15.9173 14.4811V7.22138C15.9173 6.60933 15.644 6.02876 15.1712 5.63609L9.6198 1.22839C8.64941 0.457439 7.26346 0.482344 6.32181 1.28766L0.889828 5.63609C0.394602 6.01719 0.0986113 6.59947 0.0839844 7.22138V14.4737C0.0839844 16.0529 1.37347 17.3332 2.96413 17.3332H4.56089C4.83329 17.3351 5.09522 17.2291 5.28855 17.0385C5.48187 16.848 5.59059 16.5887 5.59058 16.3183H5.62043Z" fill="white"/>
</svg>
