<svg width="18" height="18" viewBox="0 0 18 18" fill="none" xmlns="http://www.w3.org/2000/svg">
<path d="M7.83203 15.0891C11.7897 15.0891 14.998 11.8606 14.998 7.87803C14.998 3.89548 11.7897 0.666992 7.83203 0.666992C3.87435 0.666992 0.666016 3.89548 0.666016 7.87803C0.666016 11.8606 3.87435 15.0891 7.83203 15.0891Z" fill="#9A05EB"/>
<path opacity="0.4" d="M16.2278 17.2963C15.9494 17.2873 15.6847 17.1727 15.4867 16.9756L13.7897 14.992C13.4259 14.6593 13.3961 14.0938 13.723 13.7243C13.876 13.5695 14.0841 13.4824 14.301 13.4824C14.518 13.4824 14.7261 13.5695 14.8791 13.7243L17.0133 15.432C17.3207 15.7466 17.4156 16.2138 17.2555 16.6246C17.0954 17.0354 16.7103 17.3131 16.2723 17.3336L16.2278 17.2963Z" fill="#9A05EB"/>
</svg>
