<svg width="18" height="16" viewBox="0 0 18 16" fill="none" xmlns="http://www.w3.org/2000/svg">
<path opacity="0.4" d="M16.7077 9.23032C16.0235 9.23032 15.4668 8.67874 15.4668 8.00083C15.4668 7.32208 16.0235 6.7705 16.7077 6.7705C16.8735 6.7705 17.0327 6.70527 17.1493 6.58967C17.2668 6.47325 17.3327 6.31553 17.3327 6.15122L17.3318 3.92013C17.3318 2.03418 15.7827 0.5 13.8793 0.5H4.11935C2.21602 0.5 0.666849 2.03418 0.666849 3.92013L0.666016 6.22305C0.666016 6.38737 0.731849 6.54508 0.849349 6.66151C0.966016 6.77711 1.12518 6.84234 1.29102 6.84234C1.99852 6.84234 2.53185 7.34025 2.53185 8.00083C2.53185 8.67874 1.97518 9.23032 1.29102 9.23032C0.946016 9.23032 0.666016 9.50776 0.666016 9.84961V12.079C0.666016 13.965 2.21435 15.5 4.11852 15.5H13.8802C15.7843 15.5 17.3327 13.965 17.3327 12.079V9.84961C17.3327 9.50776 17.0527 9.23032 16.7077 9.23032Z" fill="white"/>
<path d="M11.8581 7.65717L10.8756 8.61383L11.1081 9.96633C11.1481 10.2005 11.0539 10.4313 10.8614 10.5697C10.6706 10.7097 10.4214 10.7272 10.2114 10.6155L8.99892 9.978L7.78392 10.6163C7.69392 10.6638 7.59559 10.6888 7.49809 10.6888C7.37059 10.6888 7.24475 10.6488 7.13642 10.5705C6.94475 10.4313 6.85059 10.2005 6.89059 9.96633L7.12225 8.61383L6.13975 7.65717C5.96975 7.49217 5.91059 7.24966 5.98392 7.02383C6.05809 6.79883 6.24975 6.63883 6.48392 6.6055L7.83892 6.408L8.44642 5.17716C8.55225 4.9655 8.76392 4.83383 8.99892 4.83383H9.00059C9.23642 4.83467 9.44809 4.96633 9.55225 5.178L10.1598 6.408L11.5173 6.60633C11.7489 6.63883 11.9406 6.79883 12.0139 7.02383C12.0881 7.24966 12.0289 7.49217 11.8581 7.65717Z" fill="white"/>
</svg>
